<svg id="Layer_1" data-name="Layer 1" xmlns="http://www.w3.org/2000/svg" viewBox="0 0 627.59 235.24"><defs><style>.cls-1,.cls-2{fill:#ffde17;}.cls-1,.cls-12,.cls-14,.cls-15,.cls-16,.cls-17,.cls-19,.cls-2,.cls-20,.cls-4,.cls-7,.cls-8,.cls-9{stroke:#231f20;stroke-miterlimit:10;}.cls-2{opacity:0.71;}.cls-3{font-size:19.89px;}.cls-11,.cls-18,.cls-3,.cls-5,.cls-6,.cls-8,.cls-9{fill:#231f20;}.cls-18,.cls-3,.cls-8{font-family:MyriadPro-Regular, Myriad Pro;}.cls-15,.cls-16,.cls-19,.cls-20,.cls-4{fill:none;}.cls-6{font-size:21.49px;}.cls-10,.cls-11,.cls-6{font-family:PTMono-Regular, PT Mono;}.cls-7{fill:#00a79d;}.cls-8{font-size:21.49px;}.cls-9{opacity:0.5;}.cls-10,.cls-11{font-size:12.88px;}.cls-10{fill:#464547;}.cls-12{fill:#ef4325;}.cls-13{opacity:0.61;}.cls-14{fill:#f15a29;}.cls-15,.cls-16,.cls-19,.cls-20{stroke-dasharray:12 3;}.cls-15{opacity:0.48;}.cls-16{opacity:0.44;}.cls-17{fill:#ef4136;}.cls-18{font-size:25px;}.cls-19{opacity:0.51;}.cls-20{opacity:0.54;}</style></defs><title>tree-shot</title><ellipse class="cls-1" cx="496.59" cy="88.23" rx="10.93" ry="10.72"/><rect class="cls-2" x="522.48" y="147.48" width="32.56" height="15.38"/><text class="cls-3" transform="translate(533.97 160.7) scale(1.06 1)">σ</text><line class="cls-4" x1="538.75" y1="164.7" x2="538.75" y2="190.67"/><line class="cls-4" x1="540.52" y1="107.73" x2="540.52" y2="145.64"/><path class="cls-5" d="M540.52,101.69a30.31,30.31,0,0,1-4.75,8.55l4.75-1.72,4.76,1.72A30.59,30.59,0,0,1,540.52,101.69Z"/><text class="cls-6" transform="translate(513.75 122.06)">f</text><text class="cls-6" transform="translate(526.64 129.22) scale(0.58)">t</text><ellipse class="cls-7" cx="540.98" cy="27.32" rx="10.93" ry="10.72"/><text class="cls-8" transform="translate(534.09 33.34) scale(1.08 1)">+</text><circle class="cls-9" cx="537.09" cy="55.62" r="2.73"/><circle class="cls-9" cx="549.75" cy="55.62" r="2.73"/><path class="cls-4" d="M569.61,44.9a17.63,17.63,0,0,0-17.7-17.58"/><path class="cls-4" d="M515.49,44.9c0-9.72,6.51-17.58,14.56-17.58"/><text class="cls-10" transform="translate(492.59 91.71) scale(1.03 1)">c</text><text class="cls-10" transform="translate(500.54 96) scale(0.6 0.58)">1</text><ellipse class="cls-7" cx="515.49" cy="55.62" rx="10.93" ry="10.72"/><text class="cls-8" transform="translate(508.6 61.24) scale(1.08 1)">×</text><ellipse class="cls-7" cx="569.61" cy="55.62" rx="10.93" ry="10.72"/><text class="cls-8" transform="translate(562.72 61.24) scale(1.08 1)">×</text><ellipse class="cls-4" cx="537.36" cy="87.71" rx="10.93" ry="10.72"/><text class="cls-11" transform="translate(534.36 91.71) scale(1.03 1)">f</text><text class="cls-11" transform="translate(542.31 96) scale(0.6 0.58)">1</text><ellipse class="cls-12" cx="594.49" cy="87.71" rx="10.93" ry="10.72"/><text class="cls-11" transform="translate(589.49 91.71) scale(1.03 1)">f</text><text class="cls-11" transform="translate(597.45 96) scale(0.6 0.58)">k</text><path class="cls-4" d="M496.59,77c0-11.82,3.57-21.37,8-21.37"/><path class="cls-4" d="M537.36,77c0-11.82-4.89-21.37-10.93-21.37"/><path class="cls-4" d="M594.49,77c0-11.82-6.24-21.37-14-21.37"/><g class="cls-13"><path class="cls-4" d="M540.52,145.64c0-30.41,17.36-55.31,39.48-57.74"/><path class="cls-5" d="M579.61,88a7.38,7.38,0,0,1-1.87-4.44,13.63,13.63,0,0,0,5.82,4.19,14.28,14.28,0,0,0-5.24,4.89A7.61,7.61,0,0,1,579.61,88Z"/></g><ellipse class="cls-7" cx="425.53" cy="89.31" rx="10.93" ry="10.72"/><text class="cls-8" transform="translate(418.64 95.33) scale(1.08 1)">+</text><ellipse class="cls-4" cx="393.04" cy="22.6" rx="10.93" ry="10.72"/><ellipse class="cls-4" cx="467.16" cy="22.6" rx="10.93" ry="10.72"/><text class="cls-11" transform="translate(388.59 25.82) scale(1.03 1)">t</text><text class="cls-11" transform="translate(396.55 30.11) scale(0.6 0.58)">1</text><circle class="cls-9" cx="445.57" cy="20.94" r="2.73"/><ellipse class="cls-14" cx="425.04" cy="22.6" rx="10.93" ry="10.72"/><text class="cls-11" transform="translate(419.73 26.05) scale(1.03 1)">t</text><text class="cls-11" transform="translate(427.68 30.34) scale(0.6 0.58)">2</text><path class="cls-15" d="M425.53,78.59c0-25,18.62-45.27,41.63-45.27"/><path class="cls-16" d="M425.53,78.59c0-25-14.53-45.27-32.49-45.27"/><text></text><text class="cls-11" transform="translate(461.62 25.03) scale(1.03 1)">t</text><text class="cls-11" transform="translate(469.57 29.32) scale(0.6 0.58)">k</text><ellipse class="cls-1" cx="260.93" cy="88.3" rx="10.93" ry="10.72"/><rect class="cls-2" x="286.82" y="147.55" width="32.56" height="15.38"/><text class="cls-3" transform="translate(298.31 160.77) scale(1.06 1)">σ</text><line class="cls-4" x1="303.1" y1="164.77" x2="303.1" y2="190.74"/><line class="cls-4" x1="304.87" y1="107.79" x2="304.87" y2="145.7"/><path class="cls-5" d="M304.87,101.76a30.39,30.39,0,0,1-4.76,8.54l4.76-1.72,4.75,1.72A30.12,30.12,0,0,1,304.87,101.76Z"/><text class="cls-6" transform="translate(278.09 122.13)">f</text><text class="cls-6" transform="translate(290.98 129.28) scale(0.58)">t</text><ellipse class="cls-7" cx="305.32" cy="27.39" rx="10.93" ry="10.72"/><text class="cls-8" transform="translate(298.43 33.41) scale(1.08 1)">+</text><circle class="cls-9" cx="301.43" cy="55.68" r="2.73"/><circle class="cls-9" cx="314.09" cy="55.68" r="2.73"/><path class="cls-4" d="M334,45a17.63,17.63,0,0,0-17.7-17.57"/><path class="cls-4" d="M279.84,45c0-9.71,6.5-17.57,14.55-17.57"/><text class="cls-10" transform="translate(256.93 91.77) scale(1.03 1)">c</text><text class="cls-10" transform="translate(264.88 96.06) scale(0.6 0.58)">1</text><ellipse class="cls-7" cx="279.84" cy="55.68" rx="10.93" ry="10.72"/><text class="cls-8" transform="translate(272.94 61.31) scale(1.08 1)">×</text><ellipse class="cls-7" cx="333.95" cy="55.68" rx="10.93" ry="10.72"/><text class="cls-8" transform="translate(327.06 61.31) scale(1.08 1)">×</text><ellipse class="cls-17" cx="301.7" cy="87.77" rx="10.93" ry="10.72"/><text class="cls-11" transform="translate(298.7 91.77) scale(1.03 1)">f</text><text class="cls-11" transform="translate(306.65 96.06) scale(0.6 0.58)">1</text><ellipse class="cls-4" cx="358.83" cy="87.77" rx="10.93" ry="10.72"/><text class="cls-11" transform="translate(353.83 91.77) scale(1.03 1)">f</text><text class="cls-11" transform="translate(361.79 96.06) scale(0.6 0.58)">k</text><path class="cls-4" d="M260.93,77.05c0-11.81,3.57-21.37,8-21.37"/><path class="cls-4" d="M301.7,77.05c0-11.81-4.89-21.37-10.93-21.37"/><path class="cls-4" d="M358.83,77.05c0-11.81-6.24-21.37-13.95-21.37"/><g class="cls-13"><path class="cls-4" d="M304.87,145.7c0-30.41,17.35-55.3,39.47-57.73"/><path class="cls-5" d="M344,88a7.38,7.38,0,0,1-1.87-4.44,13.53,13.53,0,0,0,5.82,4.18,14.45,14.45,0,0,0-5.24,4.89A7.58,7.58,0,0,1,344,88Z"/></g><ellipse class="cls-1" cx="21.15" cy="91.35" rx="10.93" ry="10.72"/><rect class="cls-2" x="47.04" y="150.6" width="32.56" height="15.38"/><text class="cls-3" transform="translate(58.54 163.82) scale(1.06 1)">σ</text><line class="cls-4" x1="63.32" y1="167.82" x2="63.32" y2="193.79"/><line class="cls-4" x1="65.09" y1="110.84" x2="65.09" y2="148.76"/><path class="cls-5" d="M65.09,104.81a30.34,30.34,0,0,1-4.76,8.55l4.76-1.72,4.75,1.72A30.31,30.31,0,0,1,65.09,104.81Z"/><text class="cls-6" transform="translate(38.31 125.18)">f</text><text class="cls-6" transform="translate(51.21 132.34) scale(0.58)">t</text><ellipse class="cls-7" cx="65.54" cy="30.44" rx="10.93" ry="10.72"/><text class="cls-8" transform="translate(58.65 36.46) scale(1.08 1)">+</text><circle class="cls-9" cx="61.65" cy="58.73" r="2.73"/><circle class="cls-9" cx="74.32" cy="58.73" r="2.73"/><path class="cls-4" d="M94.18,48A17.63,17.63,0,0,0,76.47,30.44"/><path class="cls-4" d="M40.06,48c0-9.71,6.51-17.57,14.55-17.57"/><text class="cls-10" transform="translate(17.15 94.82) scale(1.03 1)">c</text><text class="cls-10" transform="translate(25.11 99.11) scale(0.6 0.58)">1</text><ellipse class="cls-7" cx="40.06" cy="58.73" rx="10.93" ry="10.72"/><text class="cls-8" transform="translate(33.16 64.36) scale(1.08 1)">×</text><ellipse class="cls-7" cx="94.18" cy="58.73" rx="10.93" ry="10.72"/><text class="cls-8" transform="translate(87.28 64.36) scale(1.08 1)">×</text><ellipse class="cls-4" cx="61.92" cy="90.82" rx="10.93" ry="10.72"/><text class="cls-11" transform="translate(58.92 94.82) scale(1.03 1)">f</text><text class="cls-11" transform="translate(66.87 99.11) scale(0.6 0.58)">1</text><ellipse class="cls-4" cx="119.06" cy="90.82" rx="10.93" ry="10.72"/><text class="cls-11" transform="translate(114.06 94.82) scale(1.03 1)">f</text><text class="cls-11" transform="translate(122.01 99.11) scale(0.6 0.58)">k</text><path class="cls-4" d="M21.15,80.1c0-11.81,3.57-21.37,8-21.37"/><path class="cls-4" d="M61.92,80.1C61.92,68.29,57,58.73,51,58.73"/><path class="cls-4" d="M119.06,80.1c0-11.81-6.24-21.37-14-21.37"/><g class="cls-13"><path class="cls-4" d="M65.09,148.76c0-30.41,17.36-55.31,39.48-57.74"/><path class="cls-5" d="M104.17,91.08a7.38,7.38,0,0,1-1.87-4.44,13.59,13.59,0,0,0,5.82,4.18,14.45,14.45,0,0,0-5.24,4.89A7.58,7.58,0,0,1,104.17,91.08Z"/></g><text class="cls-18" transform="translate(54.61 219.06)">en</text><text class="cls-18" transform="translate(303.1 214.06)">sw</text><text class="cls-18" transform="translate(538.76 214.06)">tl</text><ellipse class="cls-4" cx="151.29" cy="146.4" rx="10.93" ry="10.72"/><ellipse class="cls-4" cx="228.4" cy="146.4" rx="10.93" ry="10.72"/><text class="cls-11" transform="translate(146.84 149.62) scale(1.03 1)">t</text><text class="cls-11" transform="translate(154.79 153.91) scale(0.6 0.58)">1</text><circle class="cls-9" cx="206.81" cy="144.73" r="2.73"/><ellipse class="cls-14" cx="182.29" cy="146.4" rx="10.93" ry="10.72"/><text class="cls-11" transform="translate(176.98 149.84) scale(1.03 1)">t</text><text class="cls-11" transform="translate(184.93 154.13) scale(0.6 0.58)">2</text><text class="cls-11" transform="translate(222.86 148.83) scale(1.03 1)">t</text><text class="cls-11" transform="translate(230.82 153.12) scale(0.6 0.58)">k</text><ellipse class="cls-7" cx="185.42" cy="89.05" rx="10.93" ry="10.72"/><text class="cls-8" transform="translate(178.53 95.07) scale(1.08 1)">+</text><path class="cls-19" d="M185.42,99.77c0,19.85,19.22,35.91,43,35.91"/><path class="cls-20" d="M185.42,99.77c0,19.85-15.27,35.91-34.13,35.91"/></svg>